<svg id="Layer_1" height="512" viewBox="0 0 512 512" width="512" xmlns="http://www.w3.org/2000/svg" data-name="Layer 1"><path fill="#fff" d="m274.8 339.67a5.931 5.931 0 0 1 -4.591-10.331 53.529 53.529 0 0 0 7.431-8.047 43.354 43.354 0 0 0 -13.728 5.326 49.747 49.747 0 0 1 -9.175 15.343c5.578 1.416 11.224 4.6 16.717 9.4l21.627.958a2.281 2.281 0 0 0 1.94-1.533 2.105 2.105 0 0 0 -.556-2.376c-4.786-4.454-12.076-9.585-19.665-8.74z"/><path fill="#fff" d="m414.534 328.546-.189-.023c-8.512-.994-14.737-5.184-18.044-11.875-.658.7-1.312 1.4-2 2.074-6.667 6.5-7.712 13.037-3.108 19.428a3.476 3.476 0 0 0 2.264 1.389l34.19-.109a.485.485 0 0 0 .443-.23.335.335 0 0 0 .037-.363c-2.67-6.054-7.244-9.516-13.593-10.291z"/><path fill="#fff" d="m491.834 164.258-17.805-6.64a21.912 21.912 0 0 1 -4.491-2.332 53.631 53.631 0 0 0 -37.451-8.851c-12.053 1.747-22.819 7.9-29.54 16.883a217.68 217.68 0 0 1 -29.547 32.094 51.876 51.876 0 0 1 -45.045 11.9l-54.215-11.447a140.937 140.937 0 0 0 -40.276-2.766c-62.666 4.977-75.626 47.756-77.774 72.813a50.644 50.644 0 0 1 -16.244 33.047c-22.43 20.6-47.479 29.653-74.47 26.893-19.775-2.022-36.009-9.99-46.144-16.319a1.878 1.878 0 0 0 -1.826-.09 1.554 1.554 0 0 0 -.923 1.25c-.65 5.636 2.526 12.167 8.714 17.919 25.015 23.258 71.162 16.662 84.703 14.088 14.258-2.71 37.9-7.427 49.928-9.835a51.655 51.655 0 0 1 -3.867-7.962 58.265 58.265 0 0 1 -3.363-27.713 5 5 0 0 1 9.869 1.611c-.273 1.74-6.166 43.08 44.107 51.713a12.167 12.167 0 0 1 10.06 13.223 2 2 0 0 0 2.071 2.235l46.194-2.109a2.284 2.284 0 0 0 2.109-1.545 2.107 2.107 0 0 0 -.556-2.377c-4.785-4.458-12.079-9.583-19.664-8.744a5.931 5.931 0 0 1 -4.594-10.33c10.1-9.006 15.059-19.2 14.729-30.3-.808-27.171-31.832-51.983-32.145-52.23a5 5 0 0 1 6.2-7.848c1.428 1.129 35 28 35.942 59.782.04 1.338.016 2.662-.06 3.976 8.562-3.379 22.378-6.358 40.151-1.763 15.651 4.043 26.835 3.709 33.464 2.717a19.193 19.193 0 0 1 20.4 11.371l12.866 29.613a7.006 7.006 0 0 0 6.435 4.2h25.79a.478.478 0 0 0 .428-.23.339.339 0 0 0 .037-.364c-2.676-6.064-7.262-9.528-13.632-10.3a13.5 13.5 0 0 1 -9.32-5.5c-3.6-5-10.395-18.163 4.239-32.434 13.938-13.59 20.917-34.176 30.576-62.667q1.463-4.312 3.008-8.842c9.3-27.157 27.581-37.523 35.012-40.718 5.391-2.32 9.765-4.34 13.765-6.356l13.461-6.793a22.793 22.793 0 0 0 8.82-7.892l2.9-4.438a6.57 6.57 0 0 0 1.077-4.54 6.372 6.372 0 0 0 -4.103-5.053zm-50.814-4.3a5 5 0 0 1 -6.725 2.185c-3.742-1.907-4.725-.525-5.442.483-.566.8-.785 1.419-.707 1.621.517 1.365 4.412 3.271 7.292 3.938a5 5 0 1 1 -2.259 9.742c-1.93-.448-11.693-3.039-14.384-10.133-.934-2.463-1.361-6.364 1.908-10.962 4.194-5.9 10.97-7.246 18.131-3.6a5 5 0 0 1 2.186 6.729z"/></svg>