<svg height="512" viewBox="0 0 512 512" width="512" xmlns="http://www.w3.org/2000/svg"><g id="filled_outline" data-name="filled outline"><path d="m24 376h464v32h-464z" fill="#d32b39"/><path d="m480 376h-448l16-120h416z" fill="#e82f3e"/><path d="m443.724 352a8 8 0 0 1 -7.92-6.943l-3.734-28a8 8 0 0 1 15.86-2.116l3.733 28a8.005 8.005 0 0 1 -7.939 9.059z" fill="#fd4a6d"/><path d="m436.257 296a8 8 0 0 1 -7.92-6.944l-1.066-8a8 8 0 1 1 15.859-2.114l1.066 8a8.006 8.006 0 0 1 -7.939 9.058z" fill="#fd4a6d"/><path d="m306.357 305.818a17.817 17.817 0 0 0 -35.452-2.545h-30.905a17.817 17.817 0 1 0 -32.253 12.727 17.818 17.818 0 1 0 30.72 17.818h33.971a17.818 17.818 0 1 0 30.72-17.818 17.734 17.734 0 0 0 3.199-10.182z" fill="#eaeae8"/><path d="m431.429 256a55.994 55.994 0 0 0 -49.669-63.7 56 56 0 0 0 -59.778-39.969 88.017 88.017 0 0 0 -147.964 0 56 56 0 0 0 -59.778 39.969 55.994 55.994 0 0 0 -49.669 63.7z" fill="#fbb540"/><g fill="#d18d28"><path d="m192 224a8 8 0 0 1 -8-8 8 8 0 0 0 -16 0 8 8 0 0 1 -16 0 24 24 0 0 1 48 0 8 8 0 0 1 -8 8z"/><path d="m368 232a8 8 0 0 1 -8-8 8 8 0 0 0 -16 0 8 8 0 0 1 -16 0 24 24 0 0 1 48 0 8 8 0 0 1 -8 8z"/><path d="m240 168.239a8 8 0 0 1 -8-7.881 24.026 24.026 0 0 1 23.644-24.358 8 8 0 1 1 .238 16 8.009 8.009 0 0 0 -7.882 8.12 8 8 0 0 1 -7.88 8.118z"/><circle cx="256" cy="224" r="8"/><circle cx="296" cy="176" r="8"/></g><path d="m488 368h-1l-15.07-113.058a8 8 0 0 0 -7.93-6.942h-24.01a63.374 63.374 0 0 0 -18.735-45.254 64.172 64.172 0 0 0 -33.487-17.646 64.008 64.008 0 0 0 -61.757-41.058 96.017 96.017 0 0 0 -156.022 0 64.008 64.008 0 0 0 -61.757 41.058 64.171 64.171 0 0 0 -33.486 17.648 63.374 63.374 0 0 0 -18.736 45.252h-8.01a8 8 0 0 0 -7.93 6.942l-15.07 113.058h-1a8 8 0 0 0 -8 8v32a8 8 0 0 0 8 8h464a8 8 0 0 0 8-8v-32a8 8 0 0 0 -8-8zm-401.94-153.941a47.437 47.437 0 0 1 29-13.8 8 8 0 0 0 6.862-5.723 48 48 0 0 1 51.241-34.25 7.988 7.988 0 0 0 7.575-3.615 80.019 80.019 0 0 1 134.524 0 7.988 7.988 0 0 0 7.575 3.615 48 48 0 0 1 51.241 34.25 8 8 0 0 0 6.862 5.723 48.012 48.012 0 0 1 43.072 47.741h-352.024a47.547 47.547 0 0 1 14.072-33.941zm-31.06 49.941h402l13.866 104h-429.728zm425 136h-448v-16h448z"/><path d="m447.93 314.942a8 8 0 0 0 -15.86 2.116l3.734 28a8 8 0 1 0 15.859-2.116z"/><path d="m437.323 295.93a8 8 0 0 0 6.873-8.987l-1.066-8a8 8 0 1 0 -15.859 2.114l1.066 8a7.992 7.992 0 0 0 8.986 6.873z"/><path d="m288.539 280a25.975 25.975 0 0 0 -23.557 15.272h-19.059a25.813 25.813 0 0 0 -49.375 10.546 25.692 25.692 0 0 0 2.088 10.182 25.827 25.827 0 0 0 23.73 36 25.961 25.961 0 0 0 20.534-10.182h25.1a25.813 25.813 0 0 0 46.355-15.636 25.681 25.681 0 0 0 -2.086-10.182 25.827 25.827 0 0 0 -23.73-36zm8.058 40.577a9.815 9.815 0 0 1 -8.058 15.423 9.876 9.876 0 0 1 -8.876-5.615 8 8 0 0 0 -7.225-4.567h-33.971a8 8 0 0 0 -7.227 4.568 9.819 9.819 0 0 1 -18.692-4.2 9.739 9.739 0 0 1 1.76-5.6 8 8 0 0 0 0-9.156 9.814 9.814 0 0 1 8.058-15.43 9.853 9.853 0 0 1 9.715 8.4 8 8 0 0 0 7.919 6.872h30.9a8 8 0 0 0 7.919-6.867 9.818 9.818 0 0 1 19.533 1.413 9.749 9.749 0 0 1 -1.76 5.605 8 8 0 0 0 .008 9.154z"/><path d="m176 192a24.028 24.028 0 0 0 -24 24 8 8 0 0 0 16 0 8 8 0 0 1 16 0 8 8 0 0 0 16 0 24.028 24.028 0 0 0 -24-24z"/><path d="m352 200a24.028 24.028 0 0 0 -24 24 8 8 0 0 0 16 0 8 8 0 0 1 16 0 8 8 0 0 0 16 0 24.028 24.028 0 0 0 -24-24z"/><path d="m255.882 152a8 8 0 1 0 -.238-16 24.026 24.026 0 0 0 -23.639 24.355 8 8 0 0 0 8 7.881h.121a8 8 0 0 0 7.874-8.116 8.009 8.009 0 0 1 7.882-8.12z"/><circle cx="256" cy="224" r="8"/><circle cx="296" cy="176" r="8"/></g></svg>