<svg xmlns="http://www.w3.org/2000/svg" width="22" height="22" viewBox="0 0 22 22">
    <g fill="none" fill-rule="evenodd">
        <rect width="22" height="22" fill="#353535" rx="2"/>
        <path fill="#FFF" d="M15.49 7c-.28 0-.546.109-.746.305l-5.227 5.141-2.71-2.623a1.06 1.06 0 0 0-.74-.3c-.29 0-.562.113-.766.322a1.057 1.057 0 0 0-.3.758c.003.286.12.552.323.75l3.456 3.346c.2.194.463.301.742.301.28 0 .545-.107.748-.305l5.966-5.87a1.05 1.05 0 0 0 .32-.75A1.06 1.06 0 0 0 15.49 7z"/>
    </g>
</svg>
