<?xml version="1.0" encoding="utf-8"?>
<!-- Generator: Adobe Illustrator 19.0.0, SVG Export Plug-In . SVG Version: 6.00 Build 0)  -->
<svg version="1.1" id="Capa_1" xmlns="http://www.w3.org/2000/svg" xmlns:xlink="http://www.w3.org/1999/xlink" x="0px" y="0px"
	 viewBox="0 0 423 46.4" style="enable-background:new 0 0 423 46.4;" xml:space="preserve">
<style type="text/css">
	.st0{fill:#E83D3C;}
	.st1{fill:#FFFFFF;}
</style>
<polygon id="XMLID_39_" class="st0" points="237.4,13.7 236.6,13.7 236.6,10.3 233.1,10.3 233.1,6.8 226.2,6.8 226.2,10.3 
	222.8,10.3 222.8,13.7 219.3,13.7 219.3,10.3 217,10.3 215.9,10.3 215.9,6.8 208.9,6.8 208.9,10.3 205.5,10.3 205.5,13.7 
	205.1,13.7 202,13.7 202,24.1 205.1,24.1 205.5,24.1 205.5,27.6 208.9,27.6 208.9,31 211.7,31 212.4,31 212.4,34.5 215.9,34.5 
	215.9,37.9 219.3,37.9 219.3,41.4 222.8,41.4 222.8,37.9 226.2,37.9 226.2,34.5 229.7,34.5 229.7,31 230.5,31 233.1,31 233.1,28.3 
	233.1,27.6 236.6,27.6 236.6,24.1 237.4,24.1 240.1,24.1 240.1,13.7 "/>
<g id="XMLID_2_">
	<path id="XMLID_3_" class="st1" d="M35.9,36.5h-8.4L27,25.8l-2.8,10.6h-6.7l-2.9-10.6l-0.5,10.6H5.7l1.7-23.5H17l3.9,12.9l4.5-12.9
		h8.9L35.9,36.5z"/>
	<path id="XMLID_5_" class="st1" d="M58.3,18.5v17.9h-9v-2c-1.3,1.6-3,2.6-5,2.6c-4.5,0-7.3-4.3-7.3-9.5c0-5.3,2.7-9.5,7.3-9.5
		c2,0,3.8,1,5,2.6v-2H58.3z M49.3,27.5c0-1.5-0.7-2.8-1.7-2.8S46,26,46,27.5s0.7,2.8,1.7,2.8S49.3,29,49.3,27.5z"/>
	<path id="XMLID_8_" class="st1" d="M81.5,11.8v24.6h-9v-2c-1.3,1.6-3,2.6-5,2.6c-4.5,0-7.3-4.3-7.3-9.5c0-5.3,2.7-9.5,7.3-9.5
		c2,0,3.8,1,5,2.6v-8.8H81.5z M72.6,27.5c0-1.5-0.7-2.8-1.7-2.8s-1.7,1.3-1.7,2.8s0.7,2.8,1.7,2.8S72.6,29,72.6,27.5z"/>
	<path id="XMLID_11_" class="st1" d="M92.2,29.2c0.1,1.3,0.7,2.2,2.8,2.2c2.7,0,5-1.1,5-1.1l1.7,5c0,0-2.9,1.7-7.8,1.7
		c-7.4,0-10.6-4.3-10.6-9.5c0-5.3,3.5-9.5,10.1-9.5c6,0,9.5,3.5,9.5,9.5c0,0.6-0.1,1.1-0.1,1.7H92.2z M94.4,25.8
		c0-1.5-0.4-2.2-1.1-2.2c-0.6,0-1.1,0.7-1.1,2.2H94.4z"/>
	<path id="XMLID_14_" class="st1" d="M143.4,18.5l-6.3,17.9h-7.4l-1.7-5.8l-1.7,5.8h-7.4l-6.3-17.9h8.5l1.7,8.7l2.3-8.7h5.7l2.3,8.7
		l1.7-8.7H143.4z"/>
	<path id="XMLID_17_" class="st1" d="M144.5,13.5c0-2.2,2-3.9,4.5-3.9s4.5,1.8,4.5,3.9s-2,3.9-4.5,3.9S144.5,15.7,144.5,13.5z
		 M144.5,18.5h9v17.9h-9V18.5z"/>
	<path id="XMLID_21_" class="st1" d="M166.9,24.1v5c0,2,0.4,2.2,3.4,1.7v5.6c-2,0.3-4.1,0.6-5.5,0.6c-4.9,0-6.8-2.1-6.8-6.1v-6.8
		h-2.2v-5.6h2.2v-5.6h9v5.6h3.4v5.6H166.9z"/>
	<path id="XMLID_23_" class="st1" d="M193.8,25.8v10.6h-9v-9.5c0-1.2-0.6-1.7-1.4-1.7s-1.4,1-1.4,2.2v9h-9V11.8h9v9.7
		c1.3-2.1,3.2-3.6,5.6-3.6C191.8,18,193.8,20.6,193.8,25.8z"/>
</g>
<g id="XMLID_20_">
	<path id="XMLID_25_" class="st1" d="M261.1,20.6c1.3-1.6,3-2.6,5-2.6c4.5,0,7.3,4.3,7.3,9.5c0,5.3-2.8,9.5-7.3,9.5
		c-2,0-3.8-0.9-5-2.6v2h-9V11.8h9V20.6z M264.4,27.5c0-1.5-0.7-2.8-1.7-2.8s-1.7,1.3-1.7,2.8s0.7,2.8,1.7,2.8S264.4,29,264.4,27.5z"
		/>
	<path id="XMLID_28_" class="st1" d="M276.5,45.4l3.7-9l-7.1-17.9h9l2.5,9l2.5-9h9l-10.6,26.9H276.5z"/>
	<path id="XMLID_30_" class="st1" d="M331.3,36.5h-9l-0.9-2.8h-7.1l-0.9,2.8h-9l9.3-23.5h8.2L331.3,36.5z M316.8,4.5h8.4l-6.7,6.2
		h-5L316.8,4.5z M319.2,26.9l-1.3-4l-1.3,4H319.2z"/>
	<path id="XMLID_34_" class="st1" d="M352.3,18.5v16.2c0,7.4-3.3,11.2-10.6,11.2c-5.9,0-9.6-2.2-9.6-2.2l2.3-5.6c0,0,9,5.3,9-2.8
		v-0.9c-1.3,1.6-3,2.6-5,2.6c-4.5,0-7.3-4.3-7.3-9.5c0-5.3,2.7-9.5,7.3-9.5c2,0,3.8,1,5,2.6v-2H352.3z M343.4,27.5
		c0-1.5-0.7-2.8-1.7-2.8S340,26,340,27.5s0.7,2.8,1.7,2.8S343.4,29,343.4,27.5z"/>
	<path id="XMLID_37_" class="st1" d="M375.6,18.5v17.9h-9v-2c-1.3,1.6-3,2.6-5,2.6c-4.5,0-7.3-4.3-7.3-9.5c0-5.3,2.7-9.5,7.3-9.5
		c2,0,3.8,1,5,2.6v-2H375.6z M366.6,27.5c0-1.5-0.7-2.8-1.7-2.8s-1.7,1.3-1.7,2.8s0.7,2.8,1.7,2.8S366.6,29,366.6,27.5z"/>
	<path id="XMLID_41_" class="st1" d="M389,24.1v5c0,2,0.4,2.2,3.4,1.7v5.6c-2,0.3-4.1,0.6-5.5,0.6c-4.9,0-6.8-2.1-6.8-6.1v-6.8h-2.2
		v-5.6h2.2v-5.6h9v5.6h3.4v5.6H389z"/>
	<path id="XMLID_43_" class="st1" d="M415.3,18.5v17.9h-9v-2c-1.3,1.6-3,2.6-5,2.6c-4.5,0-7.3-4.3-7.3-9.5c0-5.3,2.7-9.5,7.3-9.5
		c2,0,3.8,1,5,2.6v-2H415.3z M406.4,27.5c0-1.5-0.7-2.8-1.7-2.8S403,26,403,27.5s0.7,2.8,1.7,2.8S406.4,29,406.4,27.5z"/>
</g>
</svg>
